# File created by Blade
# Date/Time:  Mon Sep 22 15:39:46 2014
# Frame Rate: 120.000 fps
#------------------------------------------------------
:FULLY-SPECIFIED
:DEGREES
2787
root 1.332305 37.104050 2.335703 1.787332 -15.545679 -0.031314
RightUpLeg 4.896770 1.723385 -0.926952
RightLeg -5.537066 -0.000000 0.000000
RightFoot -9.652565 -10.317785 15.648475
RightToeBase 15.846200 -0.000000 -0.000000
LeftUpLeg 7.331005 11.291349 4.218301
LeftLeg -3.185604 -0.000000 0.000000
LeftFoot -11.016473 16.506506 -19.720716
LeftToeBase 8.305443 -0.000000 -0.000000
Spine 4.222207 -14.057898 -7.873212
RightShoulder -5.415501 -3.749263 -27.730386
RightArm -189.559761 95.809273 -143.708501
RightForeArm 82.473594 0.000000 127.330285
RightHand 14.664797 -0.000000 -39.024178
RightHandThumb1 -24.326973 -0.000000 -32.862282
LeftShoulder -18.079911 35.957834 -5.417966
LeftArm 35.395415 0.953224 -67.516586
LeftForeArm 20.350692 -0.000000 29.706221
LeftHand -16.162364 0.000000 -7.924355
LeftHandThumb1 -26.253704 0.000000 33.147579
Head -0.381966 -43.441700 9.019619
2788
root 1.329168 37.103712 2.332921 1.791974 -15.525981 -0.041175
RightUpLeg 4.892617 1.762885 -0.906031
RightLeg -5.535552 -0.000000 0.000000
RightFoot -9.661874 -10.389357 15.615253
RightToeBase 15.804142 -0.000000 -0.000000
LeftUpLeg 7.334506 11.209167 4.226327
LeftLeg -3.215041 -0.000000 0.000000
LeftFoot -11.021479 16.568040 -19.724324
LeftToeBase 8.301720 -0.000000 -0.000000
Spine 4.288186 -14.133405 -7.921501
RightShoulder -5.368254 -3.811814 -27.533788
RightArm -189.937202 95.838711 -144.050822
RightForeArm 82.264076 0.000000 127.396711
RightHand 14.704839 -0.000000 -38.395939
RightHandThumb1 -24.326973 -0.000000 -32.862282
LeftShoulder -18.111022 36.026862 -5.364515
LeftArm 35.507346 1.100769 -67.416679
LeftForeArm 20.798798 -0.000000 29.742821
LeftHand -16.227376 -0.000000 -8.085425
LeftHandThumb1 -26.253704 0.000000 33.147579
Head -0.588774 -43.049530 9.113173
2789
root 1.327144 37.103696 2.330608 1.784470 -15.493741 -0.043366
RightUpLeg 4.899626 1.789163 -0.893274
RightLeg -5.531792 -0.000000 0.000000
RightFoot -9.667390 -10.446086 15.616780
RightToeBase 15.784254 -0.000000 -0.000000
LeftUpLeg 7.341864 11.156125 4.228304
LeftLeg -3.231461 -0.000000 0.000000
LeftFoot -11.037157 16.602636 -19.764524
LeftToeBase 8.313256 -0.000000 -0.000000
Spine 4.366540 -14.220693 -7.969431
RightShoulder -5.324842 -3.855668 -27.373078
RightArm -190.254566 95.774065 -144.326134
RightForeArm 82.173927 -0.000000 127.505026
RightHand 14.732401 -0.000000 -37.824416
RightHandThumb1 -24.326973 -0.000000 -32.862282
LeftShoulder -18.109850 36.056827 -5.300984
LeftArm 35.549241 1.273018 -67.263311
LeftForeArm 21.120958 -0.000000 29.840634
LeftHand -16.352783 0.000000 -8.600967
LeftHandThumb1 -26.253704 0.000000 33.147579
Head -0.773525 -42.645497 9.177094
2790
root 1.324242 37.103579 2.327703 1.783400 -15.463772 -0.050088
RightUpLeg 4.900045 1.835921 -0.876142
RightLeg -5.524325 -0.000000 0.000000
RightFoot -9.695903 -10.515716 15.634243
RightToeBase 15.821595 -0.000000 -0.000000
LeftUpLeg 7.331488 11.167259 4.248898
LeftLeg -3.218253 -0.000000 0.000000
LeftFoot -11.012197 16.546344 -19.726899
LeftToeBase 8.290366 -0.000000 -0.000000
Spine 4.425610 -14.315044 -8.002570
RightShoulder -5.280039 -3.936795 -27.254085
RightArm -189.968316 95.616847 -143.959248
RightForeArm 81.956798 -0.000000 127.568283
RightHand 14.729172 -0.000000 -37.029909
RightHandThumb1 -24.326973 -0.000000 -32.862282
LeftShoulder -18.078624 36.086305 -5.219903
LeftArm 35.511740 1.455410 -67.116008
LeftForeArm 21.242169 -0.000000 29.999402
LeftHand -16.291443 -0.000000 -8.750817
LeftHandThumb1 -26.253704 0.000000 33.147579
Head -0.932178 -42.278483 9.216353
2791
root 1.322415 37.104358 2.326089 1.779353 -15.426466 -0.042575
RightUpLeg 4.904516 1.838833 -0.875737
RightLeg -5.525327 -0.000000 0.000000
RightFoot -9.689649 -10.567534 15.602946
RightToeBase 15.732941 -0.000000 -0.000000
LeftUpLeg 7.308446 11.222476 4.247981
LeftLeg -3.184488 -0.000000 0.000000
LeftFoot -10.990157 16.499196 -19.684082
LeftToeBase 8.294562 -0.000000 -0.000000
Spine 4.480744 -14.416385 -8.050509
RightShoulder -5.260212 -3.905682 -27.178513
RightArm -189.794439 95.500284 -143.689444
RightForeArm 81.782427 0.000000 127.612550
RightHand 14.776132 0.000000 -36.548949
RightHandThumb1 -24.326973 -0.000000 -32.862282
LeftShoulder -18.062885 36.106978 -5.135314
LeftArm 35.507463 1.666307 -66.972303
LeftForeArm 21.288853 -0.000000 30.064394
LeftHand -16.272527 -0.000000 -8.804232
LeftHandThumb1 -26.253704 0.000000 33.147579
Head -1.021551 -41.976787 9.244962
2792
root 1.321931 37.104704 2.325610 1.791779 -15.377631 -0.031461
RightUpLeg 4.896407 1.831297 -0.881679
RightLeg -5.528963 -0.000000 0.000000
RightFoot -9.695131 -10.611600 15.585663
RightToeBase 15.756381 -0.000000 -0.000000
LeftUpLeg 7.283512 11.228084 4.240274
LeftLeg -3.185671 -0.000000 0.000000
LeftFoot -10.974268 16.447882 -19.705490
LeftToeBase 8.312150 -0.000000 -0.000000
Spine 4.496437 -14.524770 -8.085661
RightShoulder -5.255582 -3.877708 -27.128571
RightArm -189.094646 95.355448 -142.896842
RightForeArm 81.676042 0.000000 127.598570
RightHand 14.890625 -0.000000 -36.010029
RightHandThumb1 -24.326973 -0.000000 -32.862282
LeftShoulder -18.062794 36.134208 -5.073537
LeftArm 35.507455 1.825947 -66.840681
LeftForeArm 21.396362 0.000000 30.119741
LeftHand -16.185216 0.000000 -9.001953
LeftHandThumb1 -26.253704 0.000000 33.147579
Head -1.039386 -41.713588 9.218815
2793
root 1.320919 37.105729 2.325176 1.805578 -15.323560 -0.019002
RightUpLeg 4.880155 1.783426 -0.889056
RightLeg -5.518675 -0.000000 0.000000
RightFoot -9.699406 -10.605257 15.587824
RightToeBase 15.742151 -0.000000 -0.000000
LeftUpLeg 7.261611 11.226763 4.237596
LeftLeg -3.196455 -0.000000 0.000000
LeftFoot -10.917340 16.385267 -19.673400
LeftToeBase 8.297907 -0.000000 -0.000000
Spine 4.496801 -14.623558 -8.123880
RightShoulder -5.264890 -3.898171 -27.099039
RightArm -187.772580 95.135559 -141.487001
RightForeArm 81.752535 -0.000000 127.571514
RightHand 14.860394 -0.000000 -35.783987
RightHandThumb1 -24.326973 -0.000000 -32.862282
LeftShoulder -18.073140 36.177551 -5.019244
LeftArm 35.546116 1.999030 -66.696188
LeftForeArm 21.344062 -0.000000 30.119005
LeftHand -16.086831 -0.000000 -9.038846
LeftHandThumb1 -26.253704 0.000000 33.147579
Head -0.967366 -41.553381 9.146996
2794
root 1.320999 37.106456 2.325072 1.826440 -15.280044 -0.006743
RightUpLeg 4.874163 1.777567 -0.899444
RightLeg -5.542686 -0.000000 0.000000
RightFoot -9.705194 -10.639219 15.604489
RightToeBase 15.757955 -0.000000 -0.000000
LeftUpLeg 7.232967 11.228433 4.221329
LeftLeg -3.203967 -0.000000 0.000000
LeftFoot -10.898392 16.369750 -19.679025
LeftToeBase 8.311780 -0.000000 -0.000000
Spine 4.476629 -14.709445 -8.148434
RightShoulder -5.267943 -3.910611 -27.097087
RightArm -186.534101 94.926740 -140.178240
RightForeArm 81.825211 -0.000000 127.491399
RightHand 14.852771 -0.000000 -35.370028
RightHandThumb1 -24.326973 -0.000000 -32.862282
LeftShoulder -18.065847 36.209273 -4.979084
LeftArm 35.547188 2.103160 -66.592236
LeftForeArm 21.311521 -0.000000 30.146720
LeftHand -16.060463 -0.000000 -9.092569
LeftHandThumb1 -26.253704 0.000000 33.147579
Head -0.839175 -41.456524 9.043241
2795
root 1.320422 37.107324 2.326039 1.855223 -15.220961 0.013090
RightUpLeg 4.846466 1.687369 -0.916823
RightLeg -5.538012 -0.000000 0.000000
RightFoot -9.705772 -10.617363 15.550102
RightToeBase 15.755965 -0.000000 -0.000000
LeftUpLeg 7.191836 11.253010 4.208423
LeftLeg -3.208720 -0.000000 0.000000
LeftFoot -10.836447 16.282991 -19.639910
LeftToeBase 8.243908 -0.000000 -0.000000
Spine 4.436870 -14.806255 -8.175103
RightShoulder -5.262443 -3.887073 -27.109086
RightArm -185.666183 94.718446 -139.264540
RightForeArm 81.952521 -0.000000 127.376847
RightHand 14.881324 -0.000000 -35.210027
RightHandThumb1 -24.326973 -0.000000 -32.862282
LeftShoulder -18.091051 36.259227 -4.985921
LeftArm 35.581715 2.199773 -66.440668
LeftForeArm 21.183719 -0.000000 30.152512
LeftHand -15.821940 -0.000000 -9.291158
LeftHandThumb1 -26.253704 0.000000 33.147579
Head -0.668811 -41.424327 8.914698
2796
root 1.320711 37.108333 2.327627 1.876003 -15.167556 0.030778
RightUpLeg 4.827733 1.619675 -0.930373
RightLeg -5.537813 -0.000000 0.000000
RightFoot -9.705362 -10.620929 15.549072
RightToeBase 15.748695 -0.000000 -0.000000
LeftUpLeg 7.158228 11.287784 4.191965
LeftLeg -3.210279 -0.000000 0.000000
LeftFoot -10.808959 16.218244 -19.675427
LeftToeBase 8.283410 -0.000000 -0.000000
Spine 4.398451 -14.875863 -8.197996
RightShoulder -5.256746 -3.897079 -27.127627
RightArm -184.678656 94.523470 -138.251970
RightForeArm 81.826434 -0.000000 127.174604
RightHand 14.919652 -0.000000 -34.884034
RightHandThumb1 -24.326973 -0.000000 -32.862282
LeftShoulder -18.061873 36.292153 -4.971691
LeftArm 35.573870 2.205039 -66.344940
LeftForeArm 21.265336 -0.000000 30.180450
LeftHand -15.801644 0.000000 -9.548095
LeftHandThumb1 -26.253704 0.000000 33.147579
Head -0.466078 -41.444472 8.773168
